<svg xmlns="http://www.w3.org/2000/svg" xmlns:xlink="http://www.w3.org/1999/xlink" x="0px" y="0px" width="595px" height="842px" viewBox="0 0 595 842" xml:space="preserve"><g id="hey"></g><g id="_x34_.0"></g><g id="m_parte_de_abajo"></g><g id="m_parte_de_arriba">	<g>		<g>			<path fill="#DA328A" d="M432,155.256c0,11.525-9.345,20.87-20.87,20.87H202.435c-11.526,0-20.87-9.345-20.87-20.87V88.87    c0-11.527,9.344-20.871,20.87-20.871H411.13C422.655,68,432,77.343,432,88.87V155.256z"></path>			<polygon fill="#DA328A" points="181.565,161.913 165.913,177.565 202.435,176.125    "></polygon>		</g>		<rect x="236.015" y="83.283" fill="none" width="146.987" height="83.61"></rect>		<text transform="matrix(0.9767 0 0 1 236.0142 148.6035)" fill="#FFFFFF" font-family="'Hey-Comic'" font-size="87.3271">hey</text>		<linearGradient id="SVGID_1_" gradientUnits="userSpaceOnUse" x1="529.9648" y1="518.0352" x2="72" y2="518.0352">			<stop offset="0" style="stop-color:#1534AB"></stop>			<stop offset="0.1318" style="stop-color:#1A3BAC"></stop>			<stop offset="0.3213" style="stop-color:#274EB0"></stop>			<stop offset="0.5457" style="stop-color:#3C6DB5"></stop>			<stop offset="0.7946" style="stop-color:#5998BD"></stop>			<stop offset="1" style="stop-color:#75C1C4"></stop>		</linearGradient>		<path fill="url(#SVGID_1_)" d="M72,617.635c0,0,0.605,74.113,64.119,75.565c0,0,67.143-1.452,66.538-75.565   c0,0,0.605-45.352,18.147-44.246c0,0,15.123-1.105,15.123,43.694c0,0-1.814,74.665,63.514,74.664c0,0,67.145,0.001,67.145-74.664   c0,0,0-44.8,16.333-44.8c0,0,16.331,0,16.331,44.8c0,0,1.814,72.454,65.326,74.665c0,0,65.33,0,65.33-74.665   c0,0,0.061-199.548,0.061-274.213l-32.666,83.611l-32.725-33.394c0,0-81.6,167.17-163.32,89.598   c0,0-114.264-123.093-179.652,59.733C121.602,542.418,88.997,610.424,72,617.635z"></path>		<linearGradient id="SVGID_2_" gradientUnits="userSpaceOnUse" x1="492.5869" y1="181.9951" x2="6.613" y2="462.5723">			<stop offset="0.0153" style="stop-color:#29399B"></stop>			<stop offset="0.8352" style="stop-color:#BC338D"></stop>			<stop offset="1" style="stop-color:#DA328A"></stop>		</linearGradient>		<path fill="url(#SVGID_2_)" d="M154.326,192.369c0,0-81.675-0.192-81.66,95.776v288.835c0,0,16.332-16.723,48.997-100.333   c0,0,48.996-133.777,179.56-35.352c0,0,58.778,58.705,147.082-64.981l-32.741-35.005l114.402-21.175   c16.332-144.487-81.661-127.765-81.661-127.765s-65.329,0-146.989,167.223C301.314,359.592,235.986,192.369,154.326,192.369z"></path>	</g>	<path fill="#FFFFFF" d="M72.666,576.979L72,617.635c0,0,18-0.635,49.602-75.217c0,0,48.906-176.049,179.652-59.733  c0,0,76.746,89.315,163.32-89.598l32.725,33.394l32.666-83.611v-22.736l-114.402,21.175l32.741,35.005  C448.304,376.313,378,491,306,437c0,0-126-108-184.338,39.646C121.662,476.646,99,536,72.666,576.979z"></path></g></svg>